<?xml version="1.0" encoding="UTF-8" standalone="no"?>
<!-- Created with Inkscape (http://www.inkscape.org/) -->

<svg
   version="1.1"
   id="svg1"
   width="1023.9997"
   height="975.56274"
   viewBox="0 0 1023.9997 975.56274"
   sodipodi:docname="logo.svg"
   inkscape:version="1.3.2 (091e20ef0f, 2023-11-25, custom)"
   xmlns:inkscape="http://www.inkscape.org/namespaces/inkscape"
   xmlns:sodipodi="http://sodipodi.sourceforge.net/DTD/sodipodi-0.dtd"
   xmlns="http://www.w3.org/2000/svg"
   xmlns:svg="http://www.w3.org/2000/svg">
   <defs
      id="defs1" />
   <sodipodi:namedview
      id="namedview1"
      pagecolor="#ffffff"
      bordercolor="#000000"
      borderopacity="0.25"
      inkscape:showpageshadow="2"
      inkscape:pageopacity="0.0"
      inkscape:pagecheckerboard="0"
      inkscape:deskcolor="#d1d1d1"
      inkscape:zoom="0.48177605"
      inkscape:cx="-698.4573"
      inkscape:cy="1576.4586"
      inkscape:window-width="3840"
      inkscape:window-height="2040"
      inkscape:window-x="0"
      inkscape:window-y="0"
      inkscape:window-maximized="1"
      inkscape:current-layer="g1" />
   <g
      inkscape:groupmode="layer"
      inkscape:label="Image"
      id="g1">
      <path
         style="fill:#ffffff;stroke-width:1.53881"
         d="M 470.87559,973.77748 C 352.29746,960.02873 246.40444,895.78573 181.64677,798.30862 157.91313,762.5833 145.69945,737.51386 132.91635,698.28603 120.72967,660.88842 117.53894,641.59421 116.59752,599.6064 l -0.79796,-35.58848 -20.798322,-5.73495 C 40.046691,543.12977 14.375576,529.05381 4.3092186,508.55489 0.66744316,501.13883 0,497.85101 0,487.32767 0,475.965 0.50795915,473.8784 5.806325,463.47612 12.078162,451.16264 28.570882,428.41258 48.059321,405.19232 L 60.28709,390.62305 53.809381,380.57137 C 18.365374,325.57174 12.818501,263.7018 38.413042,208.84026 47.771693,188.78012 59.2657,172.57942 76.079183,155.75011 c 23.08217,-23.10387 44.773917,-35.5876 76.550417,-44.05518 13.28616,-3.54041 18.15141,-4.03408 40.49094,-4.10848 21.10079,-0.0703 27.63064,0.47731 38.65075,3.24114 13.45907,3.37551 37.7272,13.0667 44.3671,17.71746 3.58882,2.51371 3.82617,2.37858 16.09418,-9.16372 26.22208,-24.670908 51.67987,-42.532288 81.69804,-57.320011 26.55418,-13.08124 51.83243,-21.275809 85.89998,-27.846595 8.55604,-1.65024 9.08824,-2.028373 11.8181,-8.396877 C 478.56112,9.6917882 493.57877,0 511.65402,0 c 17.67128,0 32.91054,9.6653185 41.36333,26.234172 2.68281,5.258743 4.01035,6.243209 9.63055,7.141915 59.03391,9.439904 120.27757,40.345627 166.34466,83.943413 l 14.50943,13.7317 4.79983,-2.91895 c 8.74209,-5.31638 26.76034,-12.29827 42.50397,-16.46981 13.70341,-3.63095 18.42628,-4.11907 40.15113,-4.1496 20.84704,-0.0292 26.712,0.5109 38.26282,3.52427 40.06277,10.45153 74.10974,34.13523 98.71832,68.67024 13.67778,19.19504 21.60257,36.2055 28.67589,61.55237 3.79395,13.59522 5.42845,46.52661 3.06105,61.67021 -4.04298,25.86147 -15.54719,55.26776 -29.97091,76.60964 l -7.13601,10.55868 11.20301,13.35252 c 47.03141,56.05537 57.45461,79.67512 45.91971,104.05734 -5.771,12.19884 -16.4843,21.68387 -34.47886,30.52601 -15.28488,7.51065 -41.47872,16.87849 -62.89064,22.49182 l -13.27464,3.48008 -0.78734,30.97801 c -0.92477,36.38636 -4.20772,57.73408 -14.22971,92.53035 -8.42226,29.24209 -18.19049,53.55202 -30.78388,76.61111 -21.69219,39.71943 -43.58127,68.6707 -74.06575,97.96212 -50.81563,48.82683 -114.20522,84.3998 -179.81156,100.90665 -43.72772,11.00209 -99.2922,15.3284 -138.49283,10.78322 z m 88.48153,-41.74892 c 68.32473,-10.75297 130.62801,-39.06921 180.54311,-82.05505 56.3541,-48.53097 93.13801,-103.32301 113.19704,-168.61437 8.06536,-26.25249 13.93006,-60.16305 13.99163,-80.90197 l 0.0301,-10.11675 -8.99417,-4.15229 c -9.94679,-4.59211 -21.05657,-14.4058 -27.04186,-23.88712 -2.14582,-3.39919 -6.72029,-14.3552 -10.16549,-24.34669 C 805.10839,492.10648 775.39969,456.2148 726.60274,424.01093 703.0634,408.47597 700.96771,407.42929 686.63602,404.0498 656.26333,396.8877 601.43729,389.88667 549.35484,386.51958 443.61431,379.68355 307.87167,401.20754 203.3759,441.37967 l -15.13499,5.81847 -3.80441,8.59447 c -10.40676,23.50967 -21.75504,63.5549 -25.32959,89.38192 -2.61358,18.88368 -2.66034,68.94406 -0.0818,87.71213 8.63222,62.83304 37.41032,124.11781 83.0983,176.96303 37.77421,43.69172 94.40885,82.89301 149.2716,103.32263 16.4399,6.12183 49.23494,14.95615 67.93961,18.30159 26.51675,4.74265 71.8158,4.99385 100.0226,0.55465 z M 478.70041,909.01678 C 429.56524,902.32736 382.98408,879.37934 348.28014,844.76572 317.8052,814.37008 299.44471,782.09567 290.53382,743.2582 c -3.48237,-15.1778 -3.48225,-54.40457 2.4e-4,-70.36251 3.6793,-16.85979 11.97533,-38.25363 16.87465,-43.51653 3.83577,-4.1204 4.9719,-4.49981 11.32872,-3.78331 14.9454,1.68456 17.15971,10.04827 9.18844,34.70592 -13.02835,40.30063 -10.6125,75.12786 7.74925,111.71488 26.72017,53.24171 76.88786,89.75438 139.87272,101.80111 20.17749,3.85923 55.19701,3.52676 75.63576,-0.71807 60.76879,-12.62075 111.85307,-50.55401 136.12915,-101.08434 10.46262,-21.77776 13.78288,-35.46952 14.741,-60.78733 0.87201,-23.04289 -1.12136,-36.93855 -8.39265,-58.50453 -4.44185,-13.17409 -4.07904,-17.30454 2.05929,-23.44285 3.04159,-3.04162 5.6402,-4.08804 10.15181,-4.08804 8.33764,0 13.36803,5.42159 19.28417,20.78389 7.95393,20.65378 10.22195,34.11885 10.10687,60.00358 -0.0878,19.76133 -0.70724,25.51741 -4.3051,40.00906 -5.13179,20.66998 -9.46919,32.43329 -18.01696,48.86317 -15.65749,30.09569 -41.46176,57.49115 -74.26897,78.84868 -18.21793,11.85988 -28.99481,16.87368 -54.28393,25.25486 -36.06434,11.95223 -68.86264,15.07447 -105.68787,10.06094 z M 437.42204,804.37487 c -12.18167,-2.95254 -19.26591,-6.85951 -29.70216,-16.3808 -18.39944,-16.78631 -22.26205,-29.21898 -12.20298,-39.27806 4.94344,-4.94344 6.00969,-5.35092 11.92578,-4.55756 4.84112,0.6492 7.60504,2.17008 10.84458,5.96739 14.48295,16.97649 21.08093,21.16034 33.4638,21.21983 16.34484,0.0785 29.59328,-8.87257 39.73821,-26.8484 4.68089,-8.29407 4.77667,-8.87513 4.77667,-28.97787 v -20.51406 l -8.77661,-3.63769 c -21.36417,-8.85498 -50.96082,-33.48502 -60.89766,-50.67844 -4.28375,-7.41209 -4.92955,-9.92538 -4.77271,-18.57422 0.22693,-12.51429 3.4055,-19.91354 12.24503,-28.50457 13.60855,-13.22602 35.32296,-18.3726 77.59003,-18.38978 32.69926,-0.0138 49.04338,2.30818 63.99367,9.08955 15.01957,6.81279 24.96105,20.54781 26.40592,36.48214 1.15888,12.78024 -4.17556,23.08044 -20.25663,39.11337 -13.40404,13.36387 -26.38793,22.58009 -42.79976,30.38008 -12.31221,5.8516 -12.49233,6.3365 -11.71088,31.52866 l 0.52519,16.93166 7.34866,10.74881 c 10.66576,15.60072 20.74943,21.88456 35.11819,21.88456 11.35073,0 17.80368,-3.49314 29.96725,-16.22188 8.34765,-8.73553 11.95956,-11.47669 15.12247,-11.47669 9.63206,0 17.85185,8.38718 17.85185,18.21539 0,10.2243 -18.47087,29.34914 -36.75229,38.05351 -25.00907,11.90762 -53.38697,6.88766 -76.24797,-13.48799 l -8.67466,-7.73162 -8.15148,7.70931 c -18.17264,17.18694 -42.15693,23.70744 -65.97151,17.93537 z M 542.43022,617.49856 c 4.32009,-4.32008 4.03015,-12.56915 -0.63246,-17.99522 -3.68356,-4.28668 -3.86122,-4.32114 -24.87325,-4.82614 -11.63978,-0.27974 -23.55067,-0.0608 -26.46865,0.48668 -11.65013,2.18559 -16.50291,14.01086 -8.87855,21.63521 3.72319,3.72322 4.1622,3.77709 30.7762,3.77709 24.94735,0 27.23298,-0.23389 30.07671,-3.07762 z M 321.6111,567.7055 c -19.02565,-8.89883 -27.57472,-27.47816 -21.77045,-47.31276 7.62948,-26.07178 39.51481,-36.16071 61.43734,-19.43956 7.60813,5.803 13.6584,18.1302 14.58911,29.72471 0.67701,8.43409 0.21755,10.93351 -3.35034,18.22605 -9.49928,19.41582 -31.90203,27.69009 -50.90566,18.80156 z m 351.94883,1.69486 c -6.88431,-2.20594 -18.20244,-12.45916 -22.2776,-20.18151 -4.83186,-9.1563 -4.75899,-25.366 0.15651,-34.82052 7.50379,-14.4328 19.07788,-21.85108 34.09236,-21.85108 10.6677,0 19.01558,3.36939 26.68311,10.76986 20.55384,19.83797 16.31502,50.90296 -8.64775,63.377 -9.96017,4.97714 -20.07314,5.88924 -30.00663,2.70625 z M 45.043157,470.74075 c 15.236164,-9.68884 46.536424,-26.46171 66.572143,-35.67399 105.68102,-48.59139 229.6015,-79.5233 348.48863,-86.98657 31.48168,-1.97631 98.79764,-1.07687 126.95174,1.6962 73.05991,7.19618 152.56664,22.50705 211.68863,40.76558 77.32137,23.87899 129.48097,47.19989 183.75535,82.15818 3.42472,2.20586 3.26654,1.68639 -1.53881,-5.05413 -24.66594,-34.59911 -81.9761,-89.88212 -119.17234,-114.95703 -14.51384,-9.78415 -46.50716,-25.88943 -68.3853,-34.42483 -15.45225,-6.02843 -59.83282,-19.22625 -90.16743,-26.81382 -92.44341,-23.12278 -204.14309,-27.84777 -312.37825,-13.21383 -68.44033,9.25347 -149.05699,31.00776 -193.53026,52.22384 -39.90515,19.03685 -80.95634,52.33137 -124.649214,101.09662 -19.164062,21.38886 -34.977227,40.5311 -34.977227,42.34085 0,1.1186 1.910331,0.2972 7.342338,-3.15707 z M 944.09019,335.12708 c 10.97473,-22.01785 12.96971,-30.90751 12.95006,-57.70534 -0.0181,-24.87558 -1.40728,-30.67137 -13.09239,-54.62772 -16.12246,-33.05366 -46.57545,-59.10789 -79.94866,-68.40057 -15.12043,-4.21026 -39.81141,-5.7284 -52.53166,-3.22997 -12.73318,2.50098 -32.06097,8.75861 -35.7173,11.56394 -2.74125,2.10326 -2.45883,2.70487 5.58889,11.90577 7.60431,8.694 23.89113,30.46476 27.15813,36.30255 1.05963,1.89345 2.78862,1.99058 10.68232,0.60016 31.1706,-5.4906 64.43273,15.62107 75.55796,47.95706 6.51119,18.92515 5.55744,35.36494 -3.17277,54.68834 -2.44272,5.40673 -4.44131,9.98233 -4.44131,10.16802 0,0.18569 7.09775,6.24983 15.77279,13.47589 8.67503,7.22608 17.83979,15.32253 20.36609,17.99217 l 4.5933,4.85385 4.2822,-5.07801 c 2.3552,-2.79293 7.73376,-12.00269 11.95235,-20.46614 z m -840.15627,16.79221 c 3.77318,-3.88262 12.58934,-11.62433 19.59146,-17.20379 7.0021,-5.57944 12.50687,-10.53919 12.23279,-11.02165 -3.66569,-6.45298 -8.77039,-19.51495 -10.14477,-25.95862 -5.10384,-23.92906 2.49657,-49.14297 20.13621,-66.80084 17.69113,-17.70939 40.62787,-24.52222 63.3549,-18.81809 3.08043,0.77315 4.53909,-0.49119 10.18565,-8.82864 3.6247,-5.35206 11.82999,-16.21176 18.23399,-24.13266 13.22913,-16.36265 13.27889,-15.87933 -2.23185,-21.68264 -47.11417,-17.62768 -102.07692,-3.67769 -134.97093,34.2567 -35.170275,40.55943 -44.039279,86.85503 -25.849854,134.93457 4.006805,10.59109 17.829363,32.315 20.561488,32.315 1.122325,0 5.127736,-3.17671 8.900916,-7.05934 z m 116.8852,-69.77559 11.54105,-4.33106 1.04034,-9.04361 c 0.87268,-7.58605 5.49071,-28.25026 9.75864,-43.66681 1.03356,-3.73341 0.94685,-3.71068 -2.93628,0.76941 -13.72199,15.83151 -38.12131,60.94647 -32.82435,60.69304 1.03372,-0.0495 7.073,-2.03889 13.4206,-4.42097 z m 595.51912,3.81846 c 0,-2.91012 -13.09282,-29.86463 -18.0489,-37.1577 -7.99073,-11.75873 -18.98807,-25.64842 -19.72441,-24.91207 -0.31653,0.3165 1.47932,6.96514 3.99073,14.77474 2.51144,7.80959 5.37504,19.20486 6.36355,25.32283 0.98852,6.11796 2.54184,11.95404 3.4518,12.9691 0.90997,1.01502 6.15551,3.53288 11.65675,5.59522 10.8075,4.05158 12.31048,4.46764 12.31048,3.40788 z M 308.1958,255.82056 c 18.48821,-4.43665 64.90231,-12.66614 82.06333,-14.55029 l 8.63444,-0.948 1.08097,-17.22758 c 1.39201,-22.18526 4.76883,-48.27582 7.96507,-61.54119 1.38614,-5.7529 2.12532,-10.85476 1.64262,-11.33745 -2.40481,-2.40481 -64.20761,11.71562 -92.62279,21.16202 l -18.50095,6.15051 -7.88717,14.16926 c -4.33795,7.79311 -10.34242,20.40145 -13.3433,28.01855 -5.01183,12.72145 -13.32226,41.51212 -13.32226,46.1536 0,1.44468 3.3406,0.97716 12.69518,-1.7767 6.98235,-2.05554 21.20004,-5.77825 31.59486,-8.27273 z m 449.66769,8.2414 c 0,-11.14682 -13.58986,-47.2662 -26.5015,-70.43621 l -8.53662,-15.31901 -16.71944,-5.97313 c -9.1957,-3.28519 -24.33654,-7.96688 -33.64634,-10.40372 -20.16652,-5.2786 -57.64552,-12.80207 -58.67024,-11.77735 -0.39877,0.39878 0.33368,5.29014 1.62766,10.86969 3.44162,14.84 8.5701,55.0935 8.5701,67.26696 v 10.52287 l 5.00111,0.80617 c 49.63227,8.0006 67.45938,11.47104 94.46209,18.38909 17.65774,4.52387 32.62432,8.31918 33.25908,8.43399 0.63476,0.11485 1.1541,-0.95589 1.1541,-2.37935 z m -284.29498,-30.56185 22.69743,-1.11776 v -46.72671 c 0,-25.69969 -0.51935,-46.71159 -1.1541,-46.69308 -14.9707,0.43633 -51.86221,4.7592 -52.74031,6.17999 -3.44643,5.57644 -12.27438,67.2688 -12.27438,85.77702 v 5.90489 l 10.38695,-1.10329 c 5.71284,-0.60684 20.60083,-1.60631 33.08441,-2.22106 z m 118.8876,-14.93782 c -0.51997,-8.67504 -1.63614,-21.31251 -2.48038,-28.08327 -1.81532,-14.55868 -8.8065,-45.04711 -10.58108,-46.14388 -1.88593,-1.16558 -49.85454,-5.33929 -50.77749,-4.41812 -0.4431,0.44225 -0.80563,21.34788 -0.80563,46.45697 v 45.65288 l 25.39035,0.82743 c 13.96469,0.45506 28.72245,0.97441 32.795,1.1541 l 7.40464,0.32668 z M 388.23172,120.46651 c 12.09734,-2.54085 24.05721,-4.61973 26.57745,-4.61973 3.54624,0 4.9803,-0.95678 6.34259,-4.23172 0.96817,-2.32744 4.71796,-10.63701 8.33288,-18.465716 3.81944,-8.271645 5.80771,-14.225606 4.74663,-14.213996 -4.58543,0.0502 -35.43487,13.981315 -47.22079,21.324142 -14.1008,8.78508 -38.38733,26.52697 -38.43872,28.08046 -0.0174,0.52364 3.95017,0.006 8.81666,-1.15084 4.86648,-1.15659 18.74598,-4.18177 30.8433,-6.7226 z m 279.61143,3.76641 C 651.27933,110.20717 632.2813,97.641856 613.22233,88.106714 c -10.25345,-5.12977 -26.16666,-11.122601 -26.16666,-9.854209 0,0.390596 4.09552,8.880224 9.10116,18.865828 l 9.10115,18.155647 12.05748,1.86479 c 6.6316,1.02564 20.36705,3.8424 30.52317,6.25947 24.34633,5.79419 25.94005,5.86069 20.00452,0.83468 z m -187.35,-16.06324 15.77279,-0.0169 V 87.378814 66.604888 h -3.92343 c -6.03386,0 -12.04287,3.791157 -19.47452,12.28662 -6.08952,6.961232 -19.6887,27.856762 -19.6887,30.252222 0,0.52278 2.59673,0.52129 5.77052,-0.002 3.17381,-0.5246 12.86831,-0.96144 21.54334,-0.97074 z m 85.65965,-6.45257 c -4.53854,-8.830256 -13.95742,-21.80814 -20.18566,-27.813044 -4.586,-4.421537 -7.42525,-5.868779 -12.07567,-6.15524 l -6.07994,-0.37453 v 20.004518 20.004516 l 20.00452,0.76941 c 11.00249,0.42316 20.21968,0.29701 20.4827,-0.28039 0.26297,-0.57737 -0.70269,-3.34723 -2.14595,-6.15524 z"
         id="path1" />
   </g>
</svg>