<?xml version="1.0" encoding="UTF-8" standalone="no"?>
<!-- Created with Inkscape (http://www.inkscape.org/) -->

<svg
   width="79.397766mm"
   height="127.24647mm"
   viewBox="0 0 79.397766 127.24647"
   version="1.1"
   id="svg1"
   inkscape:version="1.3.2 (091e20ef0f, 2023-11-25, custom)"
   sodipodi:docname="logo.svg"
   xmlns:inkscape="http://www.inkscape.org/namespaces/inkscape"
   xmlns:sodipodi="http://sodipodi.sourceforge.net/DTD/sodipodi-0.dtd"
   xmlns="http://www.w3.org/2000/svg"
   xmlns:svg="http://www.w3.org/2000/svg">
   <sodipodi:namedview
      id="namedview1"
      pagecolor="#ffffff"
      bordercolor="#000000"
      borderopacity="0.25"
      inkscape:showpageshadow="2"
      inkscape:pageopacity="0.0"
      inkscape:pagecheckerboard="0"
      inkscape:deskcolor="#d1d1d1"
      inkscape:document-units="mm"
      inkscape:zoom="1.5429574"
      inkscape:cx="102.0767"
      inkscape:cy="353.54184"
      inkscape:window-width="3840"
      inkscape:window-height="2040"
      inkscape:window-x="0"
      inkscape:window-y="0"
      inkscape:window-maximized="1"
      inkscape:current-layer="layer1" />
   <defs
      id="defs1" />
   <g
      inkscape:label="Layer 1"
      inkscape:groupmode="layer"
      id="layer1"
      transform="translate(-78.052081,-55.033333)">
      <path
         style="fill:#ffffff;stroke-width:0.264583"
         d="m 102.49733,182.02418 c -1.30579,-0.326 -2.802372,-1.29039 -3.844629,-2.47745 -2.217298,-2.52536 -2.654014,-4.47585 -3.647895,-16.29242 l -0.433337,-5.15213 -1.647315,-1.99162 c -3.03217,-3.66595 -4.83439,-6.87343 -6.07913,-10.81927 -1.262224,-4.00128 -1.555779,-6.51003 -1.397368,-11.94215 0.161775,-5.54743 0.585124,-7.86586 2.175021,-11.9112 1.617625,-4.1159 2.529922,-5.70066 5.59485,-9.71893 l 1.665274,-2.18325 -2.737487,-2.71154 c -3.12482,-3.0952 -4.459579,-4.96157 -6.266649,-8.762519 -2.027047,-4.263652 -2.484683,-6.375167 -2.473272,-11.411521 0.0089,-3.914815 0.233426,-5.749774 1.03686,-8.472731 0.128331,-0.434935 -0.06252,-0.642329 -1.018469,-1.106765 -2.527649,-1.22803 -4.416218,-3.523885 -5.102574,-6.202995 -0.98153,-3.831281 0.794981,-8.304686 4.135448,-10.413431 2.500405,-1.578438 6.624852,-1.924439 9.389266,-0.787673 0.873125,0.35904 1.623542,0.545746 1.667592,0.414899 0.04405,-0.130845 0.444659,-0.788295 0.890239,-1.460995 0.945864,-1.427996 2.702483,-2.717178 4.397446,-3.227287 1.809809,-0.544671 4.795489,-0.460973 6.515749,0.182658 1.64756,0.616431 3.76922,2.392582 4.51728,3.781639 0.47891,0.889288 0.58974,0.943848 2.23799,1.101828 6.42429,0.615741 13.27654,4.251727 17.09821,9.072764 0.65733,0.82922 1.75557,2.631797 2.44053,4.005725 l 1.24538,2.498053 4.45839,1.999864 c 2.45212,1.099926 4.55461,2.178457 4.67221,2.396738 0.48274,0.896046 1.05586,4.630055 1.05586,6.879167 0,3.053681 -0.59754,5.955186 -1.73313,8.415724 -1.216,2.634765 -2.09533,3.660402 -4.46569,5.208698 -1.57096,1.02615 -1.91721,1.35863 -1.55003,1.48838 0.26005,0.0919 1.35709,0.43369 2.43788,0.75957 2.89795,0.87376 6.82312,2.9796 9.32498,5.00281 4.9791,4.02652 8.14447,9.14542 9.79933,15.84703 0.67106,2.71757 0.79902,8.20037 0.25137,10.7705 -2.07397,9.73317 -7.84545,16.87668 -16.37168,20.26366 -2.73808,1.08769 -5.19827,1.57926 -8.93782,1.7859 l -3.175,0.17544 -0.0722,4.68978 -0.0722,4.68979 0.73368,0.17574 c 1.48701,0.35619 3.99478,1.64912 5.05303,2.60518 0.59887,0.54105 1.40278,1.62536 1.78646,2.40958 0.61023,1.24726 0.68579,1.68433 0.6032,3.48928 -0.12658,2.76619 -0.89813,4.28283 -2.87609,5.65356 -0.8513,0.58996 -2.03189,1.12844 -2.85463,1.30204 -1.99463,0.42089 -10.41364,0.23845 -10.98693,-0.23808 -0.35366,-0.29397 -0.5872,-0.29848 -1.29677,-0.0251 -1.06555,0.41057 -14.65278,0.61513 -16.14318,0.24304 z m 15.06058,-4.38499 c 1.87582,-1.39949 2.08653,-3.28195 0.56173,-5.0186 -1.15073,-1.31061 -2.17717,-1.774 -4.3133,-1.94727 l -1.85208,-0.15022 0.0526,-4.23334 c 0.0289,-2.32833 0.16141,-6.67411 0.29438,-9.65729 l 0.24177,-5.42396 -2.38295,-2.64583 c -1.31063,-1.45521 -2.74809,-3.19512 -3.19436,-3.86647 -0.4952,-0.74494 -1.2749,-1.46651 -2.00074,-1.85157 -2.58366,-1.37062 -7.633281,-7.04249 -9.874868,-11.09171 -1.15937,-2.09429 -3.00134,-6.294 -3.242913,-7.39387 -0.09658,-0.43973 -0.281376,-0.79951 -0.410657,-0.79951 -0.304406,0 -1.463061,3.84797 -1.858219,6.17125 -0.189757,1.11566 -0.258387,3.44103 -0.179607,6.08542 0.112016,3.76001 0.223594,4.60263 0.918699,6.93799 1.532046,5.14722 3.410191,8.4406 6.87097,12.04841 l 1.671029,1.74202 0.268544,4.74027 c 0.45584,8.04633 1.006232,13.00627 1.563472,14.0895 0.50972,0.99084 1.58565,2.11836 2.53159,2.65296 0.36303,0.20518 2.57918,0.27859 7.05886,0.23385 6.17039,-0.0616 6.57077,-0.0959 7.27604,-0.62203 z m 13.41799,0.0234 c 1.56196,-0.7412 2.19744,-2.73035 1.37641,-4.30835 -0.94064,-1.80789 -2.7347,-2.69884 -5.4345,-2.69884 -1.6868,0 -1.89372,-0.0599 -2.28846,-0.66234 -0.34499,-0.52653 -0.40181,-1.05546 -0.27711,-2.57968 0.0863,-1.05455 0.18953,-3.92484 0.22944,-6.37843 l 0.0726,-4.46107 -2.18449,-0.6307 c -1.20147,-0.34689 -2.92097,-0.92997 -3.82112,-1.29573 -0.90015,-0.36576 -1.72373,-0.57478 -1.83019,-0.46447 -0.23127,0.23961 -0.81235,12.21002 -0.60872,12.53951 0.0778,0.12581 0.31424,0.22874 0.52552,0.22874 1.60281,0 4.71382,2.64627 5.85633,4.98149 0.75496,1.54307 0.92013,3.96042 0.36919,5.40341 l -0.2778,0.7276 h 3.72378 c 2.77956,0 3.93813,-0.10172 4.56914,-0.40115 z m 5.83491,-25.50427 c 2.572,-0.68239 6.00977,-2.31759 7.39038,-3.51527 l 1.0261,-0.89015 -0.66969,-1.32157 c -1.05868,-2.0892 -1.77432,-4.80372 -1.98331,-7.523 -0.22387,-2.91293 -0.17593,-2.86397 -3.47772,-3.55237 -2.41191,-0.50286 -2.98364,-0.99153 -4.20525,-3.5943 -0.73391,-1.56368 -0.95555,-2.40508 -1.04544,-3.96875 -0.10099,-1.75696 -0.0423,-2.09051 0.5118,-2.91042 0.52493,-0.77669 1.64611,-1.57598 2.71144,-1.93299 0.13421,-0.045 -0.0353,-0.45959 -0.3767,-0.92135 -0.55623,-0.75234 -0.58935,-0.94179 -0.31876,-1.82343 0.16607,-0.54113 0.27605,-1.00595 0.2444,-1.03296 -0.0317,-0.027 -1.06958,0.12332 -2.30651,0.33405 -2.25089,0.38346 -9.89045,0.35195 -10.89278,-0.0449 -0.33588,-0.133 -0.56983,0.0994 -0.97636,0.96971 -0.63424,1.35788 -1.00755,1.78755 -3.04045,3.49941 -1.97828,1.66587 -3.01582,3.17285 -2.56144,3.72035 0.60747,0.73196 2.70857,1.72408 5.39536,2.54764 4.85185,1.48721 6.55286,2.74941 8.01794,5.94957 0.59086,1.29061 0.65753,1.73397 0.56595,3.76404 -0.12472,2.76455 -0.75474,4.25689 -2.55875,6.0609 -1.29932,1.29932 -3.68633,2.57768 -5.33249,2.85579 l -1.0084,0.17037 0.0485,1.34081 c 0.055,1.5232 0.0391,1.51166 3.01898,2.17987 2.59872,0.58273 9.00329,0.38717 11.82324,-0.36101 z m -19.69718,-3.19876 c 0,-0.14552 -0.18562,-0.26458 -0.41249,-0.26458 -0.22687,0 -0.3389,0.11906 -0.24897,0.26458 0.0899,0.14552 0.27556,0.26459 0.41249,0.26459 0.13694,0 0.24897,-0.11907 0.24897,-0.26459 z m 6.76342,-4.53347 c 3.01151,-1.41558 3.91323,-5.3845 1.79521,-7.90162 -0.90305,-1.07322 -1.97653,-1.59252 -5.66226,-2.73919 -3.7468,-1.16566 -5.5397,-2.28357 -8.18963,-5.10641 -1.49153,-1.58886 -2.35894,-2.83529 -3.48408,-5.00649 -1.66277,-3.20868 -2.7686,-6.19172 -2.38624,-6.43706 0.31696,-0.20337 1.99604,-2.93737 1.86787,-3.0414 -0.0533,-0.0433 -0.94443,-0.21445 -1.98019,-0.38034 -1.70129,-0.27249 -3.97693,-0.95941 -6.414293,-1.93622 -0.882171,-0.35354 -0.897355,-0.34698 -1.932839,0.83429 -0.574027,0.65484 -1.522889,1.98749 -2.108584,2.96145 l -1.064897,1.77082 0.448521,1.93334 c 0.779349,3.35938 1.457593,5.50154 2.38896,7.54529 3.287232,7.21335 8.508732,12.62473 15.267032,15.82222 4.75436,2.24939 8.93999,2.86371 11.45542,1.68132 z m 25.15577,-0.83252 c 2.05361,-2.75982 3.88995,-7.53208 4.37449,-11.36833 0.27428,-2.17162 0.25387,-2.89635 -0.15158,-5.38473 -0.25768,-1.58146 -0.51815,-2.95569 -0.57881,-3.05386 -0.0607,-0.0982 -0.61606,0.0688 -1.2342,0.37097 -0.61813,0.3022 -1.72669,0.60182 -2.46347,0.66582 -1.22674,0.10656 -1.40496,0.0471 -2.1158,-0.70605 -0.42692,-0.45232 -0.96185,-0.82241 -1.18873,-0.82241 -1.03532,0 -3.80925,1.2046 -4.94802,2.14871 -0.69067,0.57262 -1.61296,1.13412 -2.04953,1.24778 -0.55941,0.14565 -0.82082,0.39389 -0.88544,0.84086 -0.14262,0.98646 0.43449,2.56181 1.29934,3.54682 0.6448,0.73439 1.13281,0.97318 2.7026,1.32243 3.72498,0.82873 4.36462,1.65712 4.69128,6.07569 0.20093,2.71786 1.0774,6.26266 1.54307,6.24078 0.0958,-0.005 0.54795,-0.51052 1.0048,-1.12448 z m -34.8901,-19.8746 c 0.15897,-0.34889 0.93133,-1.15256 1.71636,-1.78594 1.65063,-1.33175 2.84205,-2.76008 2.84205,-3.40719 0,-0.33359 -0.3097,-0.49305 -1.19263,-0.61407 -0.65596,-0.0899 -2.08732,-0.58234 -3.18081,-1.09429 -1.09349,-0.51196 -2.0996,-0.93083 -2.23579,-0.93083 -0.49536,0 -1.64133,2.33921 -1.45425,2.96847 0.23323,0.78446 2.85665,5.49804 3.06007,5.49813 0.0858,3e-5 0.28603,-0.28539 0.445,-0.63428 z m 29.50065,-3.75431 c 2.12963,-0.88433 3.36861,-0.93324 4.39614,-0.17355 0.65492,0.4842 1.00626,0.55837 1.99993,0.42217 0.70227,-0.0963 1.20544,-0.30374 1.20544,-0.49705 0,-0.43286 -2.64942,-4.10336 -3.21123,-4.44884 -0.33204,-0.20419 -0.67164,-0.079 -1.45521,0.53641 -0.56215,0.44152 -2.12343,1.48143 -3.4695,2.31091 -1.72711,1.0643 -2.44739,1.65917 -2.44739,2.02129 0,0.72263 0.96211,0.66734 2.98182,-0.17134 z m -9.93794,-3.83426 c 2.93077,-0.4058 2.82416,-0.33071 2.20166,-1.55091 -0.66923,-1.3118 -0.67026,-1.62733 -0.008,-2.46921 0.29104,-0.36999 0.52916,-0.72766 0.52916,-0.79481 0,-0.0671 -0.4216,-0.1905 -0.93689,-0.27412 -2.08978,-0.33913 -3.80394,-2.2314 -3.8198,-4.21668 l -0.006,-0.72761 h -1.99553 c -2.96425,0 -5.7309,0.65639 -8.69664,2.06329 l -2.62238,1.24401 1.23881,0.17729 c 2.63422,0.37699 3.56473,1.54205 3.59414,4.50008 l 0.0149,1.50239 1.38906,0.28095 c 0.76399,0.15452 1.62719,0.32784 1.91823,0.38516 1.12234,0.22101 5.23144,0.15261 7.19909,-0.11983 z m -14.47513,-1.94793 c 0,-0.35521 -0.0909,-0.70199 -0.20189,-0.77062 -0.11104,-0.0686 -1.0933,-0.19773 -2.18281,-0.2869 -2.21649,-0.18141 -2.13447,-0.0137 0.53262,1.0891 1.82066,0.75281 1.85208,0.75228 1.85208,-0.0316 z m 22.58484,-0.0327 c 1.70475,-0.78047 2.07815,-1.17355 1.11478,-1.17355 -0.3703,0 -1.20694,-0.14273 -1.8592,-0.31718 -0.65225,-0.17445 -1.26835,-0.23475 -1.3691,-0.134 -0.16757,0.16757 0.33472,2.30326 0.5417,2.30326 0.0493,0 0.75665,-0.30534 1.57182,-0.67853 z m 3.07974,-2.028 c 0,-0.15487 -0.16812,-0.12915 -0.39687,0.0607 -0.21828,0.18116 -0.39688,0.37059 -0.39688,0.42097 0,0.0504 0.1786,0.023 0.39688,-0.0607 0.21828,-0.0838 0.39687,-0.2732 0.39687,-0.42097 z m -32.65939,-2.87089 c 3.20389,-3.35981 8.89333,-6.05912 14.75188,-6.99891 4.2209,-0.67709 6.21164,-1.37835 7.46066,-2.6281 1.33167,-1.332452 3.06199,-4.454808 3.81729,-6.888274 0.33854,-1.090723 0.63785,-2.941222 0.72811,-4.50152 0.17263,-2.984238 0.20343,-2.922775 -1.84325,-3.679036 -1.24712,-0.460825 -2.04488,-1.399152 -2.04488,-2.40519 0,-0.283321 -0.97011,-0.875721 -2.90234,-1.772319 l -2.90234,-1.346756 -0.70546,-1.878838 c -2.19266,-5.839613 -6.83145,-9.958901 -13.4659,-11.957846 -2.04491,-0.616127 -2.86708,-0.719397 -5.82084,-0.731144 -4.83087,-0.01921 -7.86457,0.93904 -12.799752,4.043044 -1.307364,0.822273 -1.794795,1.003652 -2.164892,0.805583 -0.488296,-0.261327 -0.536199,-0.367649 -1.033854,-2.294676 -1.002527,-3.881996 -5.948749,-5.210487 -9.093472,-2.44239 -1.967095,1.731508 -2.530129,3.824544 -1.616906,6.010733 0.881213,2.109557 2.518846,3.232647 4.713684,3.232647 2.862652,0 3.166896,0.604909 1.885694,3.74918 -2.34623,5.758019 -2.545104,10.761303 -0.653198,16.433226 3.070037,9.203966 11.870556,15.867616 21.176216,16.034386 1.61354,0.0289 1.79144,-0.0266 2.51355,-0.7838 z m 7.50362,-28.798057 c -2.1476,-2.147599 0.49447,-6.047245 3.16238,-4.667612 1.74757,0.903703 2.08767,3.465176 0.63842,4.808294 -1.02653,0.951354 -2.77342,0.886695 -3.8008,-0.140682 z m 20.39327,28.041097 c 0,-0.365 -0.34734,-0.52787 -2.2523,-1.0561 -1.71641,-0.47595 -2.24255,-0.3347 -1.12114,0.301 1.35076,0.76569 3.37344,1.21845 3.37344,0.7551 z M 99.402419,62.162545 c 1.180761,-0.595384 3.897861,-1.30924 4.983261,-1.30924 1.50819,0 0.65535,-1.071361 -1.25862,-1.581108 -2.30157,-0.612978 -4.663991,0.377534 -5.463348,2.290668 -0.216606,0.518408 -0.393829,1.05511 -0.393829,1.192664 0,0.295762 0.824851,0.0664 2.132536,-0.592984 z"
         id="teddy" />
   </g>
</svg>